<?xml version="1.0" encoding="utf-8"?>
<svg viewBox="0 0 100 35" xmlns="http://www.w3.org/2000/svg" xmlns:bx="https://boxy-svg.com">
  <text style="font-family: Poppins, sans-serif; font-size: 20px; font-weight: 700; white-space: pre;" transform="matrix(1.010115, 0, 0, 1, -0.506067, 0)" x="0.501" y="24.418">KEYSODA</text>
  <ellipse style="" cx="62.959" cy="17.566" rx="5.537" ry="5.537"/>
  <path d="M 92.323 12.246 L 95.849 19.299 L 88.796 19.299 L 92.323 12.246 Z" style="" bx:shape="triangle 88.796 12.246 7.053 7.053 0.5 0 1@67144331"/>
  <path style="" d="M 74.212 11.763 C 75.079 14.363 74.049 17.558 74.049 20.288 C 74.049 21.045 73.792 23.036 74.212 23.455 C 74.342 23.586 75.305 23.455 75.511 23.455 C 76.666 23.455 79.184 23.497 79.571 22.724 C 79.916 22.034 80.769 22.095 81.276 21.588 C 81.52 21.344 81.6 20.938 81.925 20.776 C 82.156 20.66 81.986 19.903 82.169 19.72 C 82.6 19.289 82.915 16.665 82.494 15.822 C 82.39 15.615 82.651 15.005 82.494 14.848 C 82.118 14.472 82.079 13.287 81.844 12.818 C 80.928 10.985 77.78 11.438 75.592 11.438"/>
  <path style="" d="M 46.458 13.686 C 46.733 13.623 51.858 20.708 49.97 21.44 C 47.014 22.586 45.536 21.053 45.623 19.39 L 50.03 14.052 C 50.161 12.681 46.589 12.315 46.458 13.686 Z"/>
</svg>